<svg xmlns:dc="http://purl.org/dc/elements/1.1/" xmlns:cc="http://creativecommons.org/ns#" xmlns:rdf="http://www.w3.org/1999/02/22-rdf-syntax-ns#" xmlns:svg="http://www.w3.org/2000/svg" xmlns="http://www.w3.org/2000/svg" xmlns:sodipodi="http://sodipodi.sourceforge.net/DTD/sodipodi-0.dtd" xmlns:inkscape="http://www.inkscape.org/namespaces/inkscape" version="1.1" x="0px" y="0px" viewBox="0 0 100 125"><g transform="translate(0,-952.36218)"><path style="text-indent:0;text-transform:none;direction:ltr;block-progression:tb;baseline-shift:baseline;color:#000000;enable-background:accumulate;" d="m 12,965.36217 c -3.2178,0 -6,2.50041 -6,5.71875 l 0,48.53128 c 0,3.2183 2.7822,5.75 6,5.75 l 27.9375,0 -4.2813,10 -3.6562,0 c -1.1046,0 -2,0.8954 -2,2 0,1.1046 0.8954,2 2,2 l 36,0 c 1.1046,0 2,-0.8954 2,-2 0,-1.1046 -0.8954,-2 -2,-2 l -3.5938,0 -3.5624,-10 27.1562,0 c 3.2179,0 6,-2.5317 6,-5.75 l 0,-48.53128 c 0,-3.21834 -2.7821,-5.71875 -6,-5.71875 l -76,0 z m 0,4 76,0 c 1.2142,0 2,0.80056 2,1.71875 l 0,48.53128 c 0,0.9182 -0.7858,1.75 -2,1.75 l -76,0 c -1.2142,0 -2,-0.8318 -2,-1.75 l 0,-48.53128 c 0,-0.91819 0.7858,-1.71875 2,-1.71875 z m 38,9 c -1.646,0 -2.9827,1.32685 -3,2.96875 0.3378,7.1943 0.6937,14.5921 1,21.06248 0.017,1.09 0.906,1.9688 2,1.9688 1.0941,0 1.9831,-0.8788 2,-1.9688 0.3307,-7.00748 0.6662,-14.02143 1,-21.03123 0,-1.6568 -1.3431,-3 -3,-3 z m 0,28.00003 c -1.6568,0 -3,1.3432 -3,3 0,1.6568 1.3432,3 3,3 1.6569,0 3,-1.3432 3,-3 0,-1.6568 -1.3431,-3 -3,-3 z m -5.6875,19 12.2813,0 3.5937,10 -20.1563,0 4.2813,-10 z" fill="#fff" fill-opacity="1" fill-rule="nonzero" stroke="none" marker="none" visibility="visible" display="inline" overflow="visible"/></g></svg>